#!OML:ASF H:\Terrain\Patient Classification 1\Walking\steve\steve.ASF
:FULLY-SPECIFIED
:DEGREES
32
root 6.73483 14.8513 -30.9276 7.6837 3.8126 5.27942
lowerback 0.509891 -2.65651 -5.77717
upperback -3.17874 -3.68163 0.197249
thorax -3.19794 -1.67589 3.54347
lowerneck -8.75285 -0.0578537 -2.21978
upperneck 12.386 -0.0546033 2.128
head 5.16353 0.011957 1.0219
rclavicle 1.47846e-015 3.97569e-016
rhumerus -75.7733 -12.7281 -62.9566
rradius 24.2337
rwrist 9.50706
rhand -15.2565 -35.8145
rfingers 7.12502
rthumb 10.9173 -65.5106
lclavicle 1.47846e-015 3.97569e-016
lhumerus 9.50128 -14.558 78.4152
lradius 47.0364
lwrist 31.6049
lhand -24.9056 -11.6848
lfingers 7.12502
lthumb 1.60275 18.2889
rfemur -49.5402 -0.841979 17.6034
rtibia 24.9986
rfoot -16.1304 5.74621
rtoes -9.30093
lfemur 23.4144 -2.69961 -28.1159
ltibia -4.45278e-014
lfoot -4.58325 -9.04657
ltoes 16.9326
33
root 6.74583 14.7883 -30.6703 7.73838 4.06203 5.48628
lowerback 0.578635 -2.70209 -5.65542
upperback -3.23379 -3.74571 0.210585
thorax -3.29355 -1.70689 3.49638
lowerneck -8.74355 -0.112131 -2.39455
upperneck 12.1515 -0.0875159 2.03002
head 5.09025 -0.018375 1.01677
rclavicle -1.1455e-014 -4.37326e-015
rhumerus -75.901 -12.4447 -63.1414
rradius 23.7468
rwrist 8.36396
rhand -15.3198 -36.2286
rfingers 7.12502
rthumb 10.8563 -65.928
lclavicle -1.1455e-014 -4.37326e-015
lhumerus 9.7621 -14.4539 78.3793
lradius 47.6093
lwrist 31.2707
lhand -25.4715 -12.3579
lfingers 7.12502
lthumb 1.05623 17.6192
rfemur -49.8576 -0.966183 17.3525
rtibia 25.7792
rfoot -15.9067 6.30225
rtoes -9.57053
lfemur 24.4239 -3.09627 -28.3791
ltibia -6.04305e-014
lfoot -3.55527 -8.86578
ltoes 17.8994
34
root 6.75922 14.7553 -30.4041 8.05031 4.51472 5.41564
lowerback 0.349202 -2.85443 -5.16595
upperback -3.3917 -3.92367 0.365451
thorax -3.32903 -1.80361 3.3797
lowerneck -8.60355 0.0610702 -2.76289
upperneck 11.9552 0.170447 2.23121
head 4.99915 0.104318 1.15608
rclavicle 5.23425e-014 -2.38542e-015
rhumerus -76.4362 -12.4482 -62.2452
rradius 23.8828
rwrist 8.54454
rhand -14.9116 -36.0818
rfingers 7.12502
rthumb 11.25 -65.7602
lclavicle 5.23425e-014 -2.38542e-015
lhumerus 9.61331 -13.8749 78.6721
lradius 48.3325
lwrist 30.4208
lhand -25.7773 -12.896
lfingers 7.12502
lthumb 0.760813 17.0824
rfemur -50.1959 -0.93108 17.1782
rtibia 26.6952
rfoot -15.4223 6.34704
rtoes -7.11699
lfemur 24.9533 -3.66827 -28.4105
ltibia 4.13472e-014
lfoot -3.40502 -7.76946
ltoes 10.4401
35
root 6.75717 14.7215 -30.1264 8.19362 4.63887 5.26983
lowerback 0.316229 -2.9211 -4.74359
upperback -3.60363 -4.00321 0.497237
thorax -3.54027 -1.84407 3.28815
lowerneck -8.71497 0.186584 -2.9419
upperneck 12.1579 0.359437 2.28179
head 5.07528 0.192008 1.21542
rclavicle 7.83957e-015 -7.55382e-015
rhumerus -76.9265 -12.669 -60.7681
rradius 23.5622
rwrist 9.02482
rhand -14.1877 -35.7867
rfingers 7.12502
rthumb 11.9481 -65.4257
lclavicle 7.83957e-015 -7.55382e-015
lhumerus 9.05076 -13.1683 78.9976
lradius 49.0955
lwrist 29.4258
lhand -25.9258 -13.3642
lfingers 7.12502
lthumb 0.617398 16.6147
rfemur -50.3368 -0.804819 17.3731
rtibia 27.7707
rfoot -13.3827 6.80914
rtoes -2.5859
lfemur 25.6891 -3.92239 -28.283
ltibia -5.08889e-014
lfoot -2.89016 -6.99444
ltoes 3.1301
36
root 6.73812 14.6836 -29.842 8.06496 4.36142 5.18906
lowerback 0.461433 -2.82297 -4.72694
upperback -3.70426 -3.87777 0.638734
thorax -3.73008 -1.77245 3.4346
lowerneck -8.94419 0.0972654 -2.77176
upperneck 12.3389 0.296936 1.70502
head 5.17398 0.130941 1.00527
rclavicle 2.555e-014 -2.50469e-014
rhumerus -76.7435 -13.2663 -58.5913
rradius 21.5621
rwrist 9.82758
rhand -14.5411 -35.9339
rfingers 7.12502
rthumb 11.6073 -65.5925
lclavicle 2.555e-014 -2.50469e-014
lhumerus 8.69683 -12.8688 79.1525
lradius 49.5814
lwrist 28.7215
lhand -26.5319 -14.0721
lfingers 7.12502
lthumb 0.0320417 15.9076
rfemur -50.3372 -0.455979 17.7054
rtibia 29.1608
rfoot -10.0686 6.07177
rtoes -0.501837
lfemur 26.7429 -3.78784 -28.1744
ltibia -3.49861e-014
lfoot -1.39034 -6.41414
ltoes 4.45169
37
root 6.73264 14.6616 -29.5602 8.21552 4.21728 4.95887
lowerback 0.248299 -2.77374 -4.38577
upperback -3.78238 -3.7891 0.803392
thorax -3.7079 -1.73592 3.40312
lowerneck -9.08182 0.035572 -2.6009
upperneck 12.2192 0.259499 1.21459
head 5.16263 0.0885066 0.821701
rclavicle 2.4376e-014 -1.43125e-014
rhumerus -76.8564 -12.5921 -59.6027
rradius 21.8115
rwrist 8.04478
rhand -15.9581 -36.8243
rfingers 7.12502
rthumb 10.2406 -66.555
lclavicle 2.4376e-014 -1.43125e-014
lhumerus 8.26163 -12.853 79.1616
lradius 50.221
lwrist 28.3529
lhand -27.4093 -14.9901
lfingers 7.12502
lthumb -0.815373 14.9881
rfemur -50.797 -0.163663 18.0471
rtibia 30.9343
rfoot -7.42059 3.76059
rtoes -1.34032
lfemur 27.422 -3.80422 -27.8842
ltibia 5.08889e-014
lfoot 0.674151 -5.39661
ltoes 19.7049
38
root 6.74921 14.662 -29.2873 8.67359 4.16036 4.7419
lowerback -0.0682354 -2.76727 -3.72108
upperback -3.97747 -3.75214 0.894954
thorax -3.76773 -1.73335 3.11547
lowerneck -9.12009 0.166394 -2.6189
upperneck 12.0288 0.428984 1.30135
head 5.10631 0.177678 0.862878
rclavicle 1.51449e-014 -2.38542e-015
rhumerus -77.2899 -12.7779 -58.7847
rradius 22.0309
rwrist 8.8621
rhand -16.7341 -36.7755
rfingers 7.12502
rthumb 9.49188 -66.5417
lclavicle 1.51449e-014 -2.38542e-015
lhumerus 7.44113 -12.659 79.268
lradius 51.122
lwrist 27.9313
lhand -27.4972 -15.2011
lfingers 7.12502
lthumb -0.900335 14.7768
rfemur -51.6922 -0.015109 18.2058
rtibia 32.9956
rfoot -5.49636 2.1577
rtoes -1.02663
lfemur 27.6625 -3.92219 -27.6556
ltibia 3.18055e-015
lfoot 2.57168 -4.16332
ltoes 9.81596
39
root 6.75539 14.6634 -29.013 8.83719 3.87512 4.53297
lowerback -0.084427 -2.67505 -3.32289
upperback -4.10025 -3.61492 1.09597
thorax -3.90712 -1.66979 3.10155
lowerneck -9.24169 0.309808 -2.52196
upperneck 11.94 0.658002 0.958283
head 5.09663 0.272041 0.75632
rclavicle 9.87711e-016 9.54166e-015
rhumerus -77.3527 -13.0507 -57.543
rradius 21.8422
rwrist 9.64183
rhand -16.3164 -37.6009
rfingers 7.12502
rthumb 9.89491 -67.3484
lclavicle 9.87711e-016 9.54166e-015
lhumerus 6.79107 -11.9406 79.7951
lradius 51.573
lwrist 27.0497
lhand -26.9677 -15.0376
lfingers 7.12502
lthumb -0.388928 14.9418
rfemur -52.1639 0.591876 18.187
rtibia 35.2083
rfoot -4.40295 1.96399
rtoes 2.93269
lfemur 28.1826 -3.7885 -27.4479
ltibia -4.77083e-014
lfoot 5.17517 -2.89054
ltoes 0.416354
40
root 6.7527 14.6413 -28.7405 8.79515 3.65866 4.11453
lowerback 0.11453 -2.63259 -2.83439
upperback -4.18638 -3.54353 1.3919
thorax -4.12402 -1.63976 3.14708
lowerneck -9.29843 0.370346 -2.36099
upperneck 11.7152 0.793313 0.38226
head 5.03791 0.308837 0.559725
rclavicle -1.02809e-014 1.35174e-014
rhumerus -76.619 -13.1551 -56.5946
rradius 20.4466
rwrist 10.4171
rhand -16.0494 -37.9935
rfingers 7.12502
rthumb 10.1525 -67.7285
lclavicle -1.02809e-014 1.35174e-014
lhumerus 5.83438 -11.1311 80.3269
lradius 52.2227
lwrist 26.239
lhand -26.7722 -15.3829
lfingers 7.12502
lthumb -0.200093 14.5967
rfemur -52.3643 1.42577 18.3175
rtibia 37.4896
rfoot -4.43299 1.88573
rtoes 5.32297
lfemur 28.8992 -3.68923 -26.9622
ltibia 2.54444e-014
lfoot 8.60712 -0.829099
ltoes 4.18513
41
root 6.75664 14.6222 -28.4848 8.82527 3.38608 3.60644
lowerback 0.444917 -2.60217 -2.15565
upperback -4.2687 -3.48366 1.62498
thorax -4.42521 -1.62292 3.02866
lowerneck -9.59382 0.428192 -2.21914
upperneck 11.5664 0.894411 0.100399
head 5.04234 0.346965 0.456635
rclavicle 3.56197e-014 -1.59028e-015
rhumerus -76.1437 -13.7684 -54.7502
rradius 19.7379
rwrist 12.6954
rhand -15.0476 -37.7663
rfingers 7.12502
rthumb 11.1189 -67.4518
lclavicle 3.56197e-014 -1.59028e-015
lhumerus 4.41448 -10.5232 80.5714
lradius 53.4608
lwrist 25.8643
lhand -27.1433 -15.9908
lfingers 7.12502
lthumb -0.55846 13.9882
rfemur -52.7117 2.08352 18.6678
rtibia 39.7394
rfoot -4.85424 1.63223
rtoes 1.41105
lfemur 29.3875 -3.51549 -26.438
ltibia 6.04305e-014
lfoot 12.1309 1.1714
ltoes 4.12439
42
root 6.75956 14.6171 -28.2392 8.6874 2.97963 3.20827
lowerback 0.938987 -2.49588 -1.64126
upperback -4.21537 -3.32352 1.83306
thorax -4.67643 -1.55392 2.97544
lowerneck -10.7405 0.519536 -1.74775
upperneck 12.2079 1.07872 -0.635411
head 5.4405 0.399133 0.170066
rclavicle -5.63306e-014 7.95139e-016
rhumerus -76.0053 -15.0428 -51.8033
rradius 19.548
rwrist 15.8865
rhand -13.4912 -37.545
rfingers 7.12502
rthumb 12.6196 -67.1438
lclavicle -5.63306e-014 7.95139e-016
lhumerus 3.04207 -9.86334 80.9348
lradius 54.6325
lwrist 25.5843
lhand -27.5318 -16.2236
lfingers 7.12502
lthumb -0.9337 13.7541
rfemur -52.8085 2.58178 19.0628
rtibia 41.8438
rfoot -5.29816 1.82233
rtoes -2.35008
lfemur 29.8349 -3.21088 -26.0396
ltibia -6.36111e-014
lfoot 15.8949 2.59581
ltoes -1.51411
43
root 6.7598 14.6132 -27.9912 8.46783 2.90721 3.10996
lowerback 1.5228 -2.45306 -1.38416
upperback -4.21339 -3.25482 1.98286
thorax -5.01652 -1.5203 3.015
lowerneck -10.7144 0.578935 -2.36178
upperneck 11.8097 1.18144 -0.107498
head 5.30426 0.463027 0.441605
rclavicle 9.28076e-015 -1.43125e-014
rhumerus -75.8419 -16.3794 -48.9187
rradius 18.7879
rwrist 19.1155
rhand -13.4019 -37.5967
rfingers 7.12502
rthumb 12.7058 -67.1902
lclavicle 9.28076e-015 -1.43125e-014
lhumerus 1.72059 -9.45149 81.4636
lradius 55.3997
lwrist 25.5266
lhand -27.8295 -16.1277
lfingers 7.12502
lthumb -1.22126 13.8485
rfemur -52.6957 2.71158 19.2358
rtibia 43.6862
rfoot -5.73301 2.35696
rtoes -0.291477
lfemur 25.2709 -3.26671 -25.7798
ltibia 9.70986
lfoot 15.6646 2.19514
ltoes 0.707387
44
root 6.75795 14.6241 -27.7413 8.33859 2.82894 3.0763
lowerback 2.02655 -2.42608 -1.25913
upperback -4.27088 -3.21012 2.10095
thorax -5.36756 -1.49368 3.0945
lowerneck -10.754 0.571248 -2.3669
upperneck 11.6165 1.20578 -0.365067
head 5.25254 0.458688 0.363297
rclavicle 2.83641e-014 -7.95139e-016
rhumerus -75.7662 -17.3728 -46.8268
rradius 18.24
rwrist 22.1434
rhand -14.6596 -37.5495
rfingers 7.12502
rthumb 11.493 -67.2145
lclavicle 2.83641e-014 -7.95139e-016
lhumerus 0.430192 -9.16299 81.9156
lradius 55.8639
lwrist 25.7096
lhand -27.8987 -16.0823
lfingers 7.12502
lthumb -1.28804 13.8936
rfemur -52.538 2.78494 19.4553
rtibia 45.2051
rfoot -5.91632 2.93374
rtoes 0.6743
lfemur 22.5201 -3.32878 -25.6154
ltibia 15.6408
lfoot 17.0459 2.7457
ltoes 4.61466
45
root 6.75785 14.652 -27.4905 8.23148 2.67401 2.70303
lowerback 2.31049 -2.38601 -0.922178
upperback -4.21787 -3.1301 2.31623
thorax -5.48503 -1.46139 3.13814
lowerneck -10.9885 0.623642 -2.06364
upperneck 11.5744 1.30156 -0.873388
head 5.28378 0.483037 0.163454
rclavicle 3.73467e-014 -1.66979e-014
rhumerus -75.9421 -19.1614 -42.6948
rradius 16.4355
rwrist 28.6612
rhand -17.1188 -35.7495
rfingers 7.12502
rthumb 9.12073 -65.5323
lclavicle 3.73467e-014 -1.66979e-014
lhumerus -0.726717 -8.75084 82.3292
lradius 56.0752
lwrist 25.8976
lhand -27.8537 -16.2384
lfingers 7.12502
lthumb -1.2446 13.7377
rfemur -52.0542 2.82598 20.1734
rtibia 46.3726
rfoot -6.22358 3.55133
rtoes -0.0830755
lfemur 20.3541 -3.50166 -25.2523
ltibia 20.3093
lfoot 19.0325 3.64482
ltoes 4.9788
